<?xml version="1.0" standalone="no"?>
<!DOCTYPE svg PUBLIC "-//W3C//DTD SVG 20010904//EN"
 "http://www.w3.org/TR/2001/REC-SVG-20010904/DTD/svg10.dtd">
<svg version="1.0" xmlns="http://www.w3.org/2000/svg"
 width="524.000000pt" height="600.000000pt" viewBox="0 0 524.000000 600.000000"
 preserveAspectRatio="xMidYMid meet">

<g transform="translate(0.000000,600.000000) scale(0.100000,-0.100000)"
fill="#000000" stroke="none">
<path d="M2440 5842 c-113 -65 -281 -163 -375 -217 -93 -54 -228 -132 -300
-173 -71 -41 -188 -109 -260 -150 -71 -42 -240 -139 -375 -217 -135 -77 -419
-242 -632 -365 l-388 -223 0 -1483 0 -1483 117 -68 c157 -92 362 -211 883
-513 239 -139 503 -291 585 -339 83 -48 285 -166 450 -261 165 -95 349 -202
410 -238 80 -47 114 -61 125 -55 8 6 137 80 285 165 149 86 326 188 395 228
69 40 199 115 290 168 91 52 224 129 295 170 72 42 245 142 385 223 140 80
343 197 450 259 107 63 247 143 310 180 l115 66 0 1489 0 1489 -55 31 c-30 17
-131 76 -225 130 -93 54 -226 130 -295 170 -69 39 -183 106 -255 147 -402 232
-537 310 -1180 681 -488 281 -534 307 -542 307 -4 0 -100 -53 -213 -118z m392
-774 c32 -15 80 -48 109 -75 28 -26 57 -48 64 -48 6 0 49 -25 93 -55 l81 -55
0 -105 1 -105 -66 -45 c-44 -29 -73 -58 -86 -84 -11 -21 -40 -61 -65 -88 -26
-26 -44 -50 -42 -51 2 -2 20 -13 39 -24 19 -11 53 -31 75 -44 l40 -24 -22 29
c-54 68 -7 166 79 166 48 0 98 -43 98 -85 l0 -27 38 23 c20 13 70 44 110 69
l72 46 -40 55 c-23 29 -45 55 -50 57 -6 2 -38 -13 -72 -34 -35 -20 -66 -39
-70 -41 -5 -2 -8 62 -8 142 l0 146 123 -84 122 -85 3 -115 3 -116 -68 -47
c-37 -26 -73 -54 -79 -61 -10 -11 -17 -9 -43 13 -18 15 -33 25 -34 23 -2 -2
-11 -17 -21 -32 -9 -15 -28 -33 -42 -39 -52 -24 -32 -41 233 -194 141 -82 263
-150 270 -152 20 -5 16 18 -4 24 -65 21 -98 63 -91 116 4 27 -1 32 -66 70 -39
23 -84 44 -101 48 -33 6 -44 32 -25 55 17 21 51 19 57 -2 2 -10 40 -37 84 -61
76 -40 81 -42 119 -30 l40 13 0 62 0 62 66 -46 c49 -34 68 -43 77 -34 29 29
81 -5 60 -39 -10 -14 -7 -20 13 -30 24 -13 24 -15 24 -156 0 -135 -1 -144 -22
-158 l-21 -15 23 -19 23 -19 -48 -27 c-27 -15 -55 -24 -62 -22 -31 12 -640
370 -659 387 -11 10 -26 19 -33 19 -7 0 -83 41 -168 90 -153 89 -157 90 -192
79 -45 -15 -169 -15 -215 1 -33 11 -39 8 -184 -76 l-150 -87 21 -29 c23 -31
19 -50 -19 -74 -26 -17 -68 2 -72 34 -2 12 -5 22 -8 22 -2 0 -149 -84 -326
-186 l-321 -187 -44 24 c-55 29 -60 37 -37 53 16 12 16 14 -10 31 l-27 18 3
141 3 140 120 83 120 83 3 -67 c2 -44 9 -74 19 -85 14 -16 21 -14 107 29 50
25 100 56 112 70 27 34 67 25 62 -15 -2 -21 -9 -28 -31 -30 -15 -2 -69 -27
-120 -57 -79 -45 -93 -57 -98 -84 -4 -18 -16 -42 -28 -55 -18 -19 -30 -76 -16
-76 2 0 39 21 82 46 64 37 81 44 96 35 14 -10 33 -1 107 51 50 34 90 67 90 73
0 6 38 33 85 60 57 33 85 55 85 67 0 10 7 18 15 18 8 0 15 -4 15 -10 0 -7 167
83 199 107 2 1 -15 21 -38 44 -22 23 -51 59 -63 81 -15 25 -51 59 -100 94
l-78 54 0 93 c0 88 -1 91 -15 63 -12 -22 -15 -67 -15 -201 0 -190 -7 -223 -54
-266 -30 -27 -32 -27 -51 -10 -11 10 -46 35 -77 56 l-58 38 0 121 0 121 58 38
c98 64 96 62 78 89 -49 70 32 151 102 102 12 -8 22 -22 22 -30 0 -8 2 -14 5
-14 3 0 44 27 91 59 48 34 92 57 100 54 8 -3 31 12 56 37 90 89 173 121 308
117 78 -2 105 -8 152 -29z m-1012 -517 l0 -79 -67 -39 c-38 -21 -70 -39 -73
-41 -3 -1 -4 15 -2 36 3 30 -2 45 -21 68 l-25 30 86 52 c48 28 90 51 95 51 4
1 7 -35 7 -78z m1768 30 l73 -42 -21 -26 c-11 -14 -23 -43 -26 -65 -4 -21 -9
-38 -13 -37 -3 0 -26 13 -51 28 l-45 27 -3 83 c-2 45 1 81 5 78 4 -2 41 -23
81 -46z m-1983 -55 c62 -26 82 -109 38 -158 -9 -10 -35 -27 -57 -37 -23 -10
-112 -59 -198 -109 -87 -51 -161 -92 -166 -92 -4 0 -35 19 -69 43 l-61 43 184
104 c174 100 184 107 196 145 10 29 22 45 48 57 42 22 42 22 85 4z m2171 -1
c73 -30 79 -134 10 -176 -47 -29 -82 -25 -122 15 -41 41 -46 89 -13 130 36 46
70 54 125 31z m302 -227 c78 -45 142 -85 142 -88 0 -3 -28 -23 -63 -46 l-62
-40 -164 94 c-161 94 -163 95 -138 110 28 17 57 61 57 87 0 14 7 12 43 -9 23
-14 106 -63 185 -108z m-942 -455 c261 -153 487 -285 502 -294 15 -8 35 -31
44 -50 16 -31 18 -76 18 -487 0 -383 -2 -459 -15 -485 -13 -27 -97 -80 -521
-331 -453 -266 -509 -297 -530 -287 -23 10 -23 10 -26 -69 l-3 -79 -290 167
-290 167 -3 87 -3 88 -160 95 c-88 52 -165 95 -170 95 -5 0 -45 -20 -88 -45
-43 -25 -81 -45 -84 -45 -4 0 -7 288 -7 640 0 352 2 640 5 640 3 0 42 -21 86
-46 68 -39 84 -45 102 -36 12 6 229 132 482 281 253 148 464 270 469 271 5 0
222 -125 482 -277z m-2033 206 c33 -40 19 -102 -28 -127 -19 -10 -18 -11 10
-22 60 -23 117 -104 101 -145 -10 -27 -45 -17 -61 18 l-15 32 6 -31 c6 -38 -1
-41 -83 -36 l-63 4 0 31 -1 32 -13 -31 c-18 -40 -29 -47 -51 -30 -18 13 -18
15 -2 58 19 50 48 81 89 97 l27 10 -29 30 c-32 31 -37 55 -19 95 22 49 96 57
132 15z m3210 20 c27 -12 47 -47 47 -83 0 -23 -32 -60 -60 -68 -9 -3 -1 -9 21
-17 44 -14 73 -43 94 -95 19 -44 14 -66 -15 -66 -13 0 -25 11 -34 33 l-14 32
-1 -32 -1 -33 -70 0 -70 0 -1 33 -1 32 -14 -32 c-9 -22 -21 -33 -34 -33 -68 0
-7 129 75 160 28 11 29 12 10 22 -31 16 -45 39 -45 73 0 34 14 56 45 73 26 14
38 15 68 1z m-2943 -355 c0 22 12 20 65 -11 l45 -28 0 -666 0 -667 -44 -26
c-25 -14 -49 -26 -55 -26 -7 0 -11 44 -11 131 l0 130 -26 -20 c-48 -38 -106
-23 -130 34 -18 44 -3 90 37 110 38 20 61 19 93 -6 l26 -20 0 70 0 71 -20 -20
c-11 -11 -26 -20 -33 -20 -22 0 -57 31 -57 50 0 13 -23 35 -69 66 -67 44 -71
45 -93 30 -12 -9 -33 -16 -46 -16 -31 0 -79 26 -92 49 -25 48 0 120 50 141 28
12 30 16 30 66 0 55 -12 68 -38 42 -8 -8 -15 -8 -26 1 -8 6 -16 8 -18 3 -5
-12 -95 -72 -108 -72 -7 0 -34 16 -61 36 l-49 36 0 61 c0 60 2 63 35 86 l35
24 0 152 c0 131 2 154 16 159 19 7 17 8 122 -66 45 -32 87 -58 92 -58 9 0 62
36 229 152 51 35 54 36 77 21 22 -14 24 -14 24 1z m2580 -79 l0 -96 30 16 c16
8 36 15 45 15 9 0 33 11 53 25 45 31 46 31 85 1 18 -13 43 -26 57 -28 14 -2
24 -9 23 -15 -2 -7 7 -17 18 -24 18 -9 34 -2 120 55 54 36 101 66 104 66 3 0
5 -49 5 -109 l0 -110 -30 -21 c-27 -19 -30 -27 -30 -76 0 -51 1 -53 19 -42 16
10 28 5 80 -28 l61 -39 0 -72 0 -72 -61 -42 -61 -41 -56 40 c-54 38 -57 42
-62 90 -4 39 -11 55 -32 71 -42 33 -48 27 -48 -49 0 -57 3 -70 16 -70 8 0 29
-13 45 -29 23 -23 29 -38 29 -71 0 -79 -87 -128 -153 -86 -20 13 -27 11 -85
-26 -44 -28 -67 -51 -77 -75 -14 -32 -18 -35 -49 -31 -34 4 -34 4 -38 -42 -3
-25 -4 -46 -3 -47 1 -2 15 3 33 9 72 27 143 -52 107 -121 -25 -50 -68 -62
-127 -36 -17 7 -18 -2 -18 -114 0 -67 -3 -121 -6 -121 -3 0 -25 12 -50 26
l-44 26 0 668 0 669 43 24 c23 14 45 25 50 26 4 1 7 -42 7 -94z m580 -837 l60
-42 0 -71 0 -71 -61 -42 -60 -42 -60 42 -59 42 0 73 0 72 58 40 c31 22 58 40
60 40 2 1 30 -18 62 -41z m-3547 -80 c53 -36 57 -41 57 -78 0 -31 4 -38 18
-37 9 0 81 -44 160 -98 l142 -99 0 -173 c0 -162 -1 -174 -20 -185 -13 -8 -20
-24 -20 -43 0 -27 -13 -39 -140 -127 l-139 -97 -141 97 -141 97 4 215 c5 210
5 215 28 230 65 43 65 43 20 74 l-41 29 0 76 1 76 67 46 c37 26 72 44 77 41 6
-3 36 -23 68 -44z m3427 -170 l120 -83 0 -76 c0 -59 3 -78 15 -83 12 -4 15
-33 15 -169 l0 -163 -140 -98 c-87 -61 -145 -94 -152 -90 -7 4 -70 48 -140 97
l-128 89 0 163 c0 99 4 166 10 170 6 3 10 41 10 84 l0 78 123 86 c67 48 128
84 135 82 7 -3 66 -42 132 -87z m-2408 -529 c277 -160 514 -298 527 -306 l23
-15 -43 -29 c-24 -16 -48 -29 -53 -29 -5 0 -56 27 -114 61 -64 38 -117 62
-137 63 -19 1 -32 0 -30 -3 2 -2 61 -36 130 -76 l125 -72 -67 -45 -68 -45
-140 82 -140 82 -3 82 c-2 44 1 81 5 81 5 0 17 -6 28 -13 11 -7 41 -26 67 -40
47 -27 48 -27 39 -5 -5 16 -83 67 -262 171 l-254 148 -3 -32 c-2 -18 3 -38 12
-48 20 -22 21 -65 1 -81 -11 -9 -15 -42 -17 -142 l-3 -129 -87 60 c-48 34 -92
61 -99 61 -7 0 -25 -12 -41 -27 l-28 -26 95 -54 c93 -53 107 -66 83 -76 -9 -4
-8 -6 2 -6 8 0 73 35 144 77 112 67 131 82 138 110 10 36 35 54 67 45 55 -14
41 -103 -16 -103 -17 0 -77 -34 -165 -92 -113 -75 -138 -96 -138 -115 0 -13
-11 -35 -25 -48 -48 -49 -123 -23 -140 48 -8 30 -17 38 -111 89 -33 18 -96 54
-138 79 l-78 47 60 41 c34 22 65 41 71 41 6 0 33 -14 62 -31 l52 -30 31 28
c17 15 33 29 35 31 3 1 -1 8 -7 14 -8 8 -12 57 -12 149 l0 137 51 33 51 32
-23 19 c-13 10 -32 20 -41 24 -10 3 -18 9 -18 14 0 8 76 57 92 59 4 1 233
-130 510 -290z m1936 -29 c2 -99 -1 -147 -9 -157 -10 -11 -6 -19 21 -42 l34
-28 64 37 64 38 65 -45 64 -45 -165 -96 c-150 -87 -166 -98 -166 -123 0 -45
-31 -74 -80 -74 -45 0 -80 29 -80 66 0 13 -43 48 -142 113 -112 75 -145 93
-159 85 -26 -13 -37 -11 -59 11 -38 38 -15 90 40 90 22 0 33 -7 44 -28 18 -36
281 -196 305 -187 14 6 14 8 -2 17 -16 8 -6 17 70 61 48 28 90 52 93 55 3 2
-10 17 -28 33 l-33 30 -87 -60 -87 -60 -3 127 c-2 121 -4 128 -25 137 -32 14
-31 76 1 90 17 7 22 18 22 45 0 34 4 38 72 78 l72 41 45 -34 46 -33 3 -142z
m-783 -144 c21 -31 5 -73 -30 -82 -34 -8 -53 0 -67 30 -26 59 61 107 97 52z
m113 -64 c20 -15 23 -26 20 -67 l-3 -49 -125 -72 c-121 -71 -126 -72 -150 -57
-53 34 -100 68 -100 73 0 8 312 189 325 190 6 0 20 -8 33 -18z m-1153 -208
c17 -14 49 -39 73 -56 39 -29 42 -36 42 -77 0 -35 3 -42 12 -33 7 7 16 12 20
12 4 0 8 -83 8 -184 0 -179 1 -184 23 -199 12 -8 19 -18 16 -21 -4 -4 -44 19
-90 51 -76 53 -85 63 -89 96 l-5 37 -37 -25 c-20 -14 -40 -25 -43 -25 -4 0
-47 28 -96 62 l-89 61 0 107 0 106 61 45 c105 76 112 80 139 73 14 -3 39 -17
55 -30z m1215 21 c16 -8 35 -23 42 -33 7 -10 32 -31 56 -47 l42 -28 0 -106 0
-107 -90 -62 c-50 -34 -94 -62 -98 -62 -4 0 -24 11 -45 25 l-37 26 0 -35 c0
-33 -6 -39 -87 -95 -84 -59 -136 -83 -80 -38 l27 23 0 182 c0 100 4 182 8 182
4 0 13 -5 20 -12 9 -9 12 -2 12 35 0 36 4 49 20 57 10 6 27 26 36 46 9 19 28
41 43 49 34 19 95 19 131 0z m-1527 -99 c14 -9 17 -25 17 -88 0 -43 -3 -78 -6
-78 -3 0 -45 23 -94 52 l-89 51 25 31 c20 23 25 38 22 67 l-3 38 55 -31 c30
-17 63 -36 73 -42z m2855 -27 c16 -27 20 -45 14 -51 -7 -7 -12 -3 -17 11 -5
17 -9 19 -30 9 -19 -8 -22 -14 -14 -24 6 -7 7 -18 3 -25 -4 -8 -15 2 -30 27
-30 49 -32 75 -5 50 25 -23 53 -11 45 20 -9 37 9 28 34 -17z m-138 -44 c0 -3
-11 -10 -25 -15 -15 -6 -25 -17 -25 -30 0 -26 27 -37 51 -22 23 15 29 15 29 2
0 -17 -45 -40 -67 -34 -38 10 -47 67 -15 92 16 12 52 17 52 7z m-1642 -209 c3
-134 2 -139 -22 -162 l-24 -24 -208 2 -209 3 -3 143 c-2 129 -1 143 15 149 10
4 22 13 26 20 7 11 50 13 215 11 l207 -3 3 -139z m1522 129 c7 -8 10 -21 7
-29 -3 -8 1 -17 9 -20 9 -3 12 -10 9 -16 -4 -7 -13 -7 -26 0 -19 11 -21 9 -23
-20 -2 -23 -19 -11 -44 31 l-23 38 28 15 c36 19 48 20 63 1z m-122 -96 c47
-34 52 -44 20 -36 -26 7 -58 -8 -58 -28 0 -8 -4 -15 -9 -15 -5 0 -11 23 -13
51 -4 71 -1 73 60 28z m-152 -48 c-29 -20 -24 -36 6 -20 25 13 39 1 15 -12 -9
-6 -17 -17 -17 -25 0 -12 3 -12 24 1 15 10 26 12 30 6 6 -8 -41 -41 -58 -41
-7 0 -46 66 -46 78 0 14 52 42 63 35 5 -3 -3 -13 -17 -22z m-324 -48 c9 -10
23 -32 32 -50 10 -20 28 -35 51 -43 44 -14 47 -20 35 -60 -8 -27 -5 -40 16
-76 19 -32 23 -47 15 -61 -5 -10 -134 -89 -287 -177 -212 -121 -281 -156 -293
-149 -27 16 -173 279 -167 300 6 17 547 333 571 333 7 0 19 -8 27 -17z m228
-2 c0 -5 -9 -13 -20 -16 -31 -10 -24 -27 8 -20 41 9 62 -17 37 -45 -18 -20
-55 -28 -55 -11 0 5 9 11 20 14 31 8 23 24 -10 19 -40 -6 -53 24 -21 50 25 20
41 23 41 9z"/>
<path d="M2590 4971 c-50 -26 -80 -83 -80 -153 0 -51 2 -58 20 -58 17 0 20 7
20 46 0 25 7 62 17 81 33 71 127 82 177 22 22 -25 26 -41 26 -90 0 -57 1 -60
23 -57 28 4 33 35 18 104 -24 104 -129 154 -221 105z"/>
<path d="M2421 4726 c-8 -9 -11 -58 -9 -147 l3 -134 214 0 c163 0 215 3 219
13 3 9 -41 12 -197 12 l-201 0 0 129 c0 127 -6 155 -29 127z"/>
<path d="M2639 4698 c-1 -2 -3 -36 -4 -75 l-3 -73 32 0 31 0 0 63 c0 34 -4 68
-8 75 -7 10 -44 18 -48 10z"/>
<path d="M3107 4422 c-35 -38 -10 -92 42 -92 15 0 32 5 39 12 17 17 15 64 -4
82 -21 21 -57 20 -77 -2z"/>
<path d="M3087 4259 c7 -7 15 -10 18 -7 3 3 -2 9 -12 12 -14 6 -15 5 -6 -5z"/>
<path d="M1562 4124 c-26 -18 -30 -65 -7 -84 8 -7 26 -12 40 -12 35 0 55 19
55 53 0 27 -30 59 -55 59 -6 0 -21 -7 -33 -16z"/>
<path d="M2219 3698 c-317 -181 -440 -257 -448 -274 -17 -37 -15 -790 2 -824
9 -18 140 -99 447 -277 l434 -252 31 18 c16 10 208 121 425 246 217 125 403
236 413 247 16 19 17 54 17 432 l0 413 -22 20 c-13 11 -198 120 -413 243 -214
122 -403 230 -420 240 l-30 18 -436 -250z m431 143 l0 -69 -345 -193 c-189
-107 -352 -200 -362 -207 -25 -18 -32 -109 -32 -469 l-1 -313 68 0 67 0 303
-172 302 -172 0 -68 c0 -68 0 -69 -22 -57 -74 39 -796 464 -810 476 -17 15
-18 47 -18 412 0 218 4 402 9 410 6 10 825 490 839 491 1 0 2 -31 2 -69z m262
-249 l168 -97 0 -68 0 -69 -32 20 c-48 29 -328 186 -365 206 l-32 16 -197
-111 c-108 -60 -202 -113 -210 -116 -11 -4 -14 8 -14 58 l0 64 212 122 213
122 45 -25 c24 -14 120 -69 212 -122z m-758 -258 c14 -5 16 -44 16 -329 0
-285 -2 -324 -16 -329 -28 -11 -120 -6 -132 6 -17 17 -17 629 0 646 12 12 104
17 132 6z m308 -11 c8 -10 59 -94 114 -188 l99 -170 5 185 5 185 115 0 c155
-1 204 -18 286 -99 70 -71 98 -135 98 -231 0 -96 -28 -160 -98 -231 -80 -79
-130 -97 -280 -98 l-110 -1 -113 190 -113 190 0 -186 c0 -210 4 -199 -80 -199
-87 0 -80 -28 -80 335 0 249 3 324 13 328 6 3 37 6 68 6 42 1 60 -3 71 -16z
m958 -2 c6 -12 10 -131 10 -316 0 -185 -4 -304 -10 -316 -9 -15 -22 -19 -65
-19 -93 0 -85 -30 -85 335 0 249 3 324 13 328 6 3 38 6 69 6 47 1 59 -3 68
-18z m-340 -734 l0 -63 -206 -120 c-114 -65 -210 -120 -215 -122 -5 -2 -9 27
-9 65 l0 68 208 117 c114 65 210 118 215 118 4 0 7 -28 7 -63z m347 22 c30
-17 51 -35 46 -39 -25 -23 -797 -459 -804 -454 -5 3 -9 32 -9 65 0 58 1 60 37
82 105 63 659 375 667 376 5 1 33 -13 63 -30z"/>
<path d="M2830 3011 c0 -102 4 -182 9 -186 17 -10 91 7 124 29 40 27 75 78 83
123 19 103 -81 213 -193 213 -23 0 -23 0 -23 -179z"/>
<path d="M1097 3242 c-13 -14 -17 -38 -17 -91 0 -68 2 -74 30 -97 16 -14 32
-40 36 -57 5 -25 21 -43 80 -84 41 -29 83 -53 94 -53 10 0 26 -10 34 -22 15
-21 16 -5 16 195 l0 218 -60 -41 c-36 -25 -60 -48 -60 -59 0 -24 -31 -51 -58
-51 -32 0 -58 44 -44 75 7 14 18 25 27 25 24 0 17 13 -20 38 -42 27 -38 26
-58 4z"/>
<path d="M4172 3222 c-21 -16 -22 -21 -11 -45 10 -22 9 -30 -5 -52 -20 -30
-52 -32 -81 -5 l-21 20 -47 -33 -47 -32 0 -112 0 -112 29 9 c39 11 171 108
171 126 0 27 29 72 50 79 19 6 21 13 18 88 -3 90 -13 102 -56 69z"/>
<path d="M836 2689 l-56 -40 0 -62 1 -62 55 -39 56 -38 54 37 54 37 0 67 -1
66 -53 37 -54 37 -56 -40z"/>
<path d="M942 2243 c-29 -53 -1 -119 46 -106 l23 6 -22 23 c-12 13 -25 41 -28
61 -7 36 -8 37 -19 16z"/>
<path d="M880 2026 c-25 -53 -23 -80 6 -84 25 -4 40 24 18 32 -17 6 -18 39 -3
68 6 11 9 22 6 24 -3 3 -15 -15 -27 -40z"/>
<path d="M953 1999 c-21 -57 -19 -59 57 -59 56 0 70 3 70 15 0 11 -13 15 -54
15 -54 0 -55 0 -58 32 l-3 32 -12 -35z"/>
<path d="M1121 1993 c-1 -13 -5 -23 -11 -23 -16 0 -12 -20 6 -27 8 -3 23 2 32
11 11 11 12 16 4 16 -7 0 -17 10 -22 23 l-9 22 0 -22z"/>
<path d="M2639 1288 c-1 -2 -3 -36 -4 -75 l-3 -73 32 0 31 0 0 63 c-1 34 -4
68 -8 75 -7 10 -44 18 -48 10z"/>
<path d="M4350 1330 c-11 -7 -12 -12 -3 -21 14 -14 46 -4 41 13 -6 16 -20 19
-38 8z"/>
<path d="M4240 1234 c0 -8 5 -12 10 -9 6 4 8 11 5 16 -9 14 -15 11 -15 -7z"/>
<path d="M3733 1063 c-10 -25 87 -193 111 -193 31 0 24 34 -25 120 -50 88 -73
107 -86 73z"/>
<path d="M3615 1011 c-34 -15 -74 -62 -81 -96 -7 -42 16 -98 52 -122 68 -44
184 1 184 71 0 19 -8 44 -19 57 -18 22 -19 23 -45 5 -32 -21 -31 -48 3 -56 23
-5 23 -6 7 -23 -41 -40 -103 -26 -128 29 -18 38 7 75 62 95 25 9 45 23 45 30
0 16 -50 22 -80 10z"/>
<path d="M3434 896 c-3 -9 5 -36 19 -61 14 -24 22 -47 18 -50 -5 -2 -37 7 -72
20 -72 29 -97 31 -105 10 -8 -20 88 -189 110 -193 27 -6 30 26 5 73 -13 24
-21 47 -18 50 4 3 38 -6 78 -21 71 -26 101 -27 101 -1 0 8 -22 52 -48 98 -47
82 -76 106 -88 75z"/>
</g>
</svg>
